<?xml version="1.0" encoding="utf-8"?>
<!-- Generator: Adobe Illustrator 16.0.0, SVG Export Plug-In . SVG Version: 6.00 Build 0)  -->
<!DOCTYPE svg PUBLIC "-//W3C//DTD SVG 1.1//EN" "http://www.w3.org/Graphics/SVG/1.1/DTD/svg11.dtd">
<svg version="1.1" id="Vrstva_1" xmlns="http://www.w3.org/2000/svg" xmlns:xlink="http://www.w3.org/1999/xlink" x="0px" y="0px"
	 width="595.28px" height="595.28px" viewBox="0 0 595.28 595.28" enable-background="new 0 0 595.28 595.28" xml:space="preserve">
<linearGradient id="SVGID_1_" gradientUnits="userSpaceOnUse" x1="250.0244" y1="297.27" x2="367.8505" y2="362.828">
	<stop  offset="0" style="stop-color:#47C1F0"/>
	<stop  offset="0.5" style="stop-color:#00A8E7"/>
	<stop  offset="1" style="stop-color:#00A0E4"/>
</linearGradient>
<path fill="url(#SVGID_1_)" d="M450.459,385.492c0,70.107-68.436,126.958-152.82,126.958c-0.931,0-1.86,0-2.764-0.026
	c-0.079,0-0.132,0.026-0.213,0c-0.823-0.025-1.674-0.025-2.471-0.052c-26.551-0.799-51.401-7.179-72.821-17.836
	c-1.144-0.558-2.259-1.116-3.375-1.729c-3.96-2.549-6.486-6.562-6.486-11.054c0-7.789,7.602-14.085,16.957-14.085
	c2.577,0,4.996,0.451,7.149,1.328c1.142,0.61,2.285,1.194,3.454,1.78c15.761,7.734,33.833,12.544,53.155,13.528
	c2.472,0.16,4.97,0.212,7.468,0.212h1.223c0.027,0,0.027,0,0.053,0c65.248-0.561,117.948-44.703,117.948-99.025
	c0-53.845-51.717-97.671-116.141-99.026c-1.036-0.028-2.046-0.028-3.083-0.028c-0.877,0-1.78,0-2.658,0.028h-0.426
	c-0.823,0-1.647,0-2.498-0.055c-8.344-0.822-14.856-6.725-14.856-13.899c0-6.086,4.705-11.27,11.216-13.183
	c0.558-0.159,1.116-0.319,1.7-0.399c0.638-0.132,1.275-0.239,1.914-0.318c0.079,0,0.16,0,0.239-0.027
	c0.824-0.026,1.648-0.053,2.498-0.053h2.817c0.266,0,1.329-0.026,2.207-0.026h0.451c64.555-1.169,116.489-45.049,116.489-98.974
	c0-54.669-53.341-99-119.147-99c-65.805,0-119.172,44.331-119.172,99v386.354c0,9.275-7.521,16.823-16.824,16.823
	c-9.302,0-16.823-7.548-16.823-16.823V159.531c0-70.11,68.41-126.959,152.819-126.959c84.384,0,152.82,56.849,152.82,126.959
	c0,49.221-33.728,91.904-83.027,112.98C416.731,293.588,450.459,336.27,450.459,385.492z"/>
</svg>
